<svg width="56" height="56" viewBox="0 0 56 56" fill="none" xmlns="http://www.w3.org/2000/svg">
<path d="M46 53C46 54.104 45.104 55 44 55H24C22.896 55 22 54.104 22 53V37H46V53Z" stroke="#424242" stroke-width="2" stroke-miterlimit="10" stroke-linecap="round" stroke-linejoin="round"/>
<path d="M22 43H46" stroke="#424242" stroke-width="2" stroke-miterlimit="10" stroke-linecap="round" stroke-linejoin="round"/>
<path d="M27 47H41" stroke="#424242" stroke-width="2" stroke-miterlimit="10" stroke-linecap="round" stroke-linejoin="round"/>
<path d="M29 51H39" stroke="#424242" stroke-width="2" stroke-miterlimit="10" stroke-linecap="round" stroke-linejoin="round"/>
<path d="M15 14H27V26H15V14Z" stroke="#424242" stroke-width="2" stroke-miterlimit="10" stroke-linecap="round" stroke-linejoin="round"/>
<path d="M24 26V17H18V26" stroke="#424242" stroke-width="2" stroke-miterlimit="10" stroke-linecap="round" stroke-linejoin="round"/>
<path d="M21 22.5C21.8284 22.5 22.5 21.8284 22.5 21C22.5 20.1716 21.8284 19.5 21 19.5C20.1716 19.5 19.5 20.1716 19.5 21C19.5 21.8284 20.1716 22.5 21 22.5Z" fill="#424242"/>
<path d="M15 26C13.721 27.28 13 29.021 13 30.83V50C13 51.101 13.9 52 15 52H19" stroke="#424242" stroke-width="2" stroke-miterlimit="10" stroke-linejoin="round"/>
<path d="M27 26C28.279 27.28 29 29.021 29 30.83V34" stroke="#424242" stroke-width="2" stroke-miterlimit="10" stroke-linejoin="round"/>
<path d="M10 42H4V48H10" stroke="#424242" stroke-width="2" stroke-miterlimit="10" stroke-linejoin="round"/>
<path d="M4 42L1 1H25L24.281 10.836" stroke="#424242" stroke-width="2" stroke-miterlimit="10" stroke-linejoin="round"/>
<path d="M24.71 5H1.29004" stroke="#424242" stroke-width="2" stroke-miterlimit="10" stroke-linecap="round" stroke-linejoin="round"/>
<path d="M19 9H7" stroke="#424242" stroke-width="2" stroke-miterlimit="10" stroke-linecap="round" stroke-linejoin="round"/>
<path d="M18 31H24" stroke="#424242" stroke-width="2" stroke-miterlimit="10" stroke-linecap="round" stroke-linejoin="round"/>
<path d="M41 15H51V20H41V15Z" stroke="#424242" stroke-width="2" stroke-miterlimit="10" stroke-linecap="round" stroke-linejoin="round"/>
<path d="M48 15V9" stroke="#424242" stroke-width="2" stroke-miterlimit="10" stroke-linecap="round" stroke-linejoin="round"/>
<path d="M44 15V9" stroke="#424242" stroke-width="2" stroke-miterlimit="10" stroke-linecap="round" stroke-linejoin="round"/>
<path d="M50 9H37" stroke="#424242" stroke-width="2" stroke-miterlimit="10" stroke-linecap="round" stroke-linejoin="round"/>
<path d="M37 34V28C37 24.851 38.48 21.89 41 20" stroke="#424242" stroke-width="2" stroke-miterlimit="10" stroke-linejoin="round"/>
<path d="M51 20C53.52 21.89 55 24.851 55 28V50C55 51.101 54.1 52 53 52H49" stroke="#424242" stroke-width="2" stroke-miterlimit="10" stroke-linejoin="round"/>
<path d="M43 27H49" stroke="#424242" stroke-width="2" stroke-miterlimit="10" stroke-linecap="round" stroke-linejoin="round"/>
</svg>
