<svg width="68" height="68" viewBox="0 0 68 68" fill="none" xmlns="http://www.w3.org/2000/svg">
<path fill-rule="evenodd" clip-rule="evenodd" d="M0 57.8602C0 57.3101 0.445967 56.8641 0.996094 56.8641H39.7569C40.307 56.8641 40.753 57.3101 40.753 57.8602C40.753 58.4104 40.307 58.8563 39.7569 58.8563H1.99219V61.1967H42.326C42.8762 61.1967 43.3221 61.6427 43.3221 62.1928C43.3221 62.743 42.8762 63.1889 42.326 63.1889H0.996094C0.445967 63.1889 0 62.743 0 62.1928V57.8602Z" fill="black"/>
<path fill-rule="evenodd" clip-rule="evenodd" d="M5.59082 53.1199C6.14095 53.1199 6.58692 53.5658 6.58692 54.116V57.7274C6.58692 58.2775 6.14095 58.7235 5.59082 58.7235C5.04069 58.7235 4.59473 58.2775 4.59473 57.7274V54.116C4.59473 53.5658 5.04069 53.1199 5.59082 53.1199Z" fill="black"/>
<path fill-rule="evenodd" clip-rule="evenodd" d="M4.59473 36.568C4.59473 35.6512 5.33806 34.9078 6.25488 34.9078H34.068C34.6181 34.9078 35.0641 35.3538 35.0641 35.9039V57.7274C35.0641 58.2776 34.6181 58.7235 34.068 58.7235C33.5178 58.7235 33.0719 58.2776 33.0719 57.7274V36.9H6.58692V49.4674C6.58692 50.0175 6.14095 50.4635 5.59082 50.4635C5.04069 50.4635 4.59473 50.0175 4.59473 49.4674V36.568Z" fill="black"/>
<path fill-rule="evenodd" clip-rule="evenodd" d="M9.45752 28.1896C10.0076 28.1896 10.4536 28.6355 10.4536 29.1857V35.6384C10.4536 36.1885 10.0076 36.6345 9.45752 36.6345C8.90739 36.6345 8.46143 36.1885 8.46143 35.6384V29.1857C8.46143 28.6355 8.90739 28.1896 9.45752 28.1896Z" fill="black"/>
<path fill-rule="evenodd" clip-rule="evenodd" d="M8.46143 17.337C8.46143 16.4202 9.20476 15.6769 10.1216 15.6769H33.404C34.3209 15.6769 35.0642 16.4202 35.0642 17.337V35.904C35.0642 36.4541 34.6182 36.9001 34.0681 36.9001C33.518 36.9001 33.072 36.4541 33.072 35.904V17.6691H10.4536V24.5372C10.4536 25.0873 10.0076 25.5333 9.45752 25.5333C8.90739 25.5333 8.46143 25.0873 8.46143 24.5372V17.337Z" fill="black"/>
<path fill-rule="evenodd" clip-rule="evenodd" d="M27.3071 11.4128C27.8573 11.4128 28.3032 11.8588 28.3032 12.4089V16.5402C28.3032 17.0903 27.8573 17.5363 27.3071 17.5363C26.757 17.5363 26.311 17.0903 26.311 16.5402V12.4089C26.311 11.8588 26.757 11.4128 27.3071 11.4128Z" fill="black"/>
<path fill-rule="evenodd" clip-rule="evenodd" d="M26.311 0.996216C26.311 0.446089 26.757 0.00012207 27.3071 0.00012207H56.0981C57.0149 0.00012207 57.7583 0.743456 57.7583 1.66028V26.1557C57.7583 26.7058 57.3123 27.1518 56.7622 27.1518C56.212 27.1518 55.7661 26.7058 55.7661 26.1557V1.99231H28.3032V7.76049C28.3032 8.31062 27.8573 8.75659 27.3071 8.75659C26.757 8.75659 26.311 8.31062 26.311 7.76049V0.996216Z" fill="black"/>
<path fill-rule="evenodd" clip-rule="evenodd" d="M33.2046 26.304C33.2046 25.7538 33.6506 25.3079 34.2007 25.3079H37.4972C38.0474 25.3079 38.4933 25.7538 38.4933 26.304C38.4933 26.8541 38.0474 27.3 37.4972 27.3H34.2007C33.6506 27.3 33.2046 26.8541 33.2046 26.304Z" fill="black"/>
<path fill-rule="evenodd" clip-rule="evenodd" d="M41.1499 26.304C41.1499 25.7538 41.5959 25.3079 42.146 25.3079H62.4096C62.9597 25.3079 63.4057 25.7538 63.4057 26.304V42.5182C63.4057 43.0684 62.9597 43.5143 62.4096 43.5143C61.8595 43.5143 61.4135 43.0684 61.4135 42.5182V27.3H42.146C41.5959 27.3 41.1499 26.8541 41.1499 26.304Z" fill="black"/>
<path fill-rule="evenodd" clip-rule="evenodd" d="M45.8062 25.4252C46.3563 25.4252 46.8022 25.8711 46.8022 26.4213V31.003H49.6066V26.4213C49.6066 25.8711 50.0526 25.4252 50.6027 25.4252C51.1528 25.4252 51.5988 25.8711 51.5988 26.4213V31.9991C51.5988 32.5493 51.1528 32.9952 50.6027 32.9952H45.8062C45.256 32.9952 44.8101 32.5493 44.8101 31.9991V26.4213C44.8101 25.8711 45.256 25.4252 45.8062 25.4252Z" fill="black"/>
<path fill-rule="evenodd" clip-rule="evenodd" d="M39.4097 0.0731201C39.9598 0.0731201 40.4058 0.519087 40.4058 1.06921V6.76435H44.0338V1.06921C44.0338 0.519087 44.4798 0.0731201 45.0299 0.0731201C45.58 0.0731201 46.026 0.519087 46.026 1.06921V7.76044C46.026 8.31057 45.58 8.75654 45.0299 8.75654H39.4097C38.8595 8.75654 38.4136 8.31057 38.4136 7.76044V1.06921C38.4136 0.519087 38.8595 0.0731201 39.4097 0.0731201Z" fill="black"/>
<path fill-rule="evenodd" clip-rule="evenodd" d="M19.3643 15.8568C19.9144 15.8568 20.3604 16.3028 20.3604 16.8529V21.4345H23.1647V16.8529C23.1647 16.3028 23.6107 15.8568 24.1608 15.8568C24.7109 15.8568 25.1569 16.3028 25.1569 16.8529V22.4306C25.1569 22.9808 24.7109 23.4267 24.1608 23.4267H19.3643C18.8141 23.4267 18.3682 22.9808 18.3682 22.4306V16.8529C18.3682 16.3028 18.8141 15.8568 19.3643 15.8568Z" fill="black"/>
<path fill-rule="evenodd" clip-rule="evenodd" d="M19.3643 35.0406C19.9144 35.0406 20.3604 35.4866 20.3604 36.0367V40.6185H23.1647V36.0367C23.1647 35.4866 23.6107 35.0406 24.1608 35.0406C24.7109 35.0406 25.1569 35.4866 25.1569 36.0367V41.6146C25.1569 42.1647 24.7109 42.6107 24.1608 42.6107H19.3643C18.8141 42.6107 18.3682 42.1647 18.3682 41.6146V36.0367C18.3682 35.4866 18.8141 35.0406 19.3643 35.0406Z" fill="black"/>
<path fill-rule="evenodd" clip-rule="evenodd" d="M9.8535 61.5009C10.3056 61.1874 10.9262 61.2997 11.2397 61.7518C11.686 62.3953 11.9477 63.1779 11.9477 64.0186C11.9477 66.2176 10.1651 68.0002 7.9661 68.0002C5.76716 68.0002 3.98438 66.2177 3.98438 64.0186C3.98438 63.1894 4.23899 62.4167 4.67431 61.778C4.98417 61.3235 5.60385 61.2062 6.05842 61.516C6.51298 61.8259 6.63029 62.4456 6.32044 62.9001C6.10339 63.2185 5.97656 63.6023 5.97656 64.0186C5.97656 65.1173 6.8673 66.008 7.9661 66.008C9.06484 66.008 9.95549 65.1174 9.95549 64.0186C9.95549 63.5966 9.82516 63.208 9.6026 62.8871C9.28911 62.435 9.40144 61.8144 9.8535 61.5009Z" fill="black"/>
<path fill-rule="evenodd" clip-rule="evenodd" d="M53.0159 40.0239C45.8406 40.0239 40.0239 45.8406 40.0239 53.0159C40.0239 60.1912 45.8406 66.0079 53.0159 66.0079C60.1912 66.0079 66.0079 60.1912 66.0079 53.0159C66.0079 45.8406 60.1912 40.0239 53.0159 40.0239ZM38.0317 53.0159C38.0317 44.7404 44.7404 38.0317 53.0159 38.0317C61.2915 38.0317 68.0001 44.7404 68.0001 53.0159C68.0001 61.2915 61.2915 68.0001 53.0159 68.0001C44.7404 68.0001 38.0317 61.2915 38.0317 53.0159Z" fill="black"/>
<path fill-rule="evenodd" clip-rule="evenodd" d="M60.0917 45.9404C60.4807 46.3294 60.4807 46.9601 60.0917 47.3491L47.3494 60.0914C46.9604 60.4804 46.3297 60.4804 45.9407 60.0914C45.5517 59.7024 45.5517 59.0717 45.9407 58.6827L58.683 45.9404C59.072 45.5514 59.7027 45.5514 60.0917 45.9404Z" fill="black"/>
<path fill-rule="evenodd" clip-rule="evenodd" d="M48.5646 47.3066C47.8699 47.3066 47.3066 47.8699 47.3066 48.5646C47.3066 49.2594 47.8699 49.8226 48.5646 49.8226C49.2594 49.8226 49.8226 49.2594 49.8226 48.5646C49.8226 47.8699 49.2594 47.3066 48.5646 47.3066ZM45.3145 48.5646C45.3145 46.7696 46.7696 45.3145 48.5646 45.3145C50.3597 45.3145 51.8148 46.7696 51.8148 48.5646C51.8148 50.3597 50.3597 51.8148 48.5646 51.8148C46.7696 51.8148 45.3145 50.3597 45.3145 48.5646Z" fill="black"/>
<path fill-rule="evenodd" clip-rule="evenodd" d="M57.467 56.2092C56.7722 56.2092 56.209 56.7725 56.209 57.4672C56.209 58.162 56.7722 58.7252 57.467 58.7252C58.1618 58.7252 58.725 58.162 58.725 57.4672C58.725 56.7725 58.1618 56.2092 57.467 56.2092ZM54.2168 57.4672C54.2168 55.6722 55.672 54.217 57.467 54.217C59.262 54.217 60.7172 55.6722 60.7172 57.4672C60.7172 59.2623 59.262 60.7174 57.467 60.7174C55.672 60.7174 54.2168 59.2623 54.2168 57.4672Z" fill="black"/>
</svg>
