<svg width="62" height="62" viewBox="0 0 62 62" fill="none" xmlns="http://www.w3.org/2000/svg">
<path d="M31.0724 13.508L36.1386 8.44194C37.2809 7.29965 39.1329 7.29965 40.2751 8.44194C41.4174 9.58411 41.4174 11.4361 40.2751 12.5783M40.2751 12.5783L37.6562 15.1973M40.2751 12.5783L37.5952 15.2582M40.2751 12.5783C41.4174 11.436 43.2694 11.4361 44.4117 12.5784C45.5539 13.7206 45.5539 15.5725 44.4117 16.7148L40.3195 20.8069M40.8405 20.2858L44.4116 16.7148C45.5539 15.5725 47.4058 15.5725 48.5482 16.7148C49.6904 17.857 49.6904 19.7089 48.5482 20.8512M48.5482 20.8512L44.456 24.9433M48.5482 20.8512L44.977 24.4222M48.5482 20.8512C49.6905 19.7089 51.5424 19.7089 52.6847 20.8512C53.8269 21.9934 53.8269 23.8453 52.6847 24.9876L42.6047 35.0674C39.1714 38.5006 34.5149 40.4292 29.6597 40.4292C28.1612 40.4292 26.7241 41.0246 25.6645 42.084L6.81047 60.9378M19.7425 27.1391L15.3507 22.7474C14.2084 21.6051 14.2084 19.7532 15.3507 18.611C16.4929 17.4687 18.345 17.4687 19.4872 18.611M19.7425 27.1391C20.8848 28.2814 22.7368 28.2814 23.879 27.1391C25.0213 25.9968 25.0213 24.1449 23.879 23.0027M19.7425 27.1391L17.1539 24.5505C16.0116 23.4083 14.1597 23.4083 13.0175 24.5505C11.8752 25.6928 11.8752 27.5447 13.0175 28.687L15.606 31.2755M19.7425 27.1391C20.8848 28.2813 20.8848 30.1332 19.7425 31.2755C18.6003 32.4178 16.7483 32.4178 15.606 31.2755M19.4872 18.611L23.879 23.0027M19.4872 18.611C18.3448 17.4687 18.3449 15.6167 19.4872 14.4746C20.6294 13.3323 22.4814 13.3323 23.6236 14.4746M23.879 23.0027C25.0213 24.145 26.8733 24.145 28.0155 23.0027C29.1578 21.8604 29.1578 20.0085 28.0155 18.8663M23.6236 14.4746L28.0155 18.8663M23.6236 14.4746C22.4813 13.3323 22.4813 11.4803 23.6237 10.3382C24.7659 9.19587 26.6179 9.19587 27.7601 10.3382L32.1519 14.7299C33.2943 15.8721 33.2943 17.724 32.1519 18.8663C31.0098 20.0086 29.1578 20.0086 28.0155 18.8663M15.606 31.2755L1.02921 45.852M15.606 31.2755L26.0397 41.7089M60.9999 43.9064L51.5992 34.5058C51.6857 32.2147 51.1257 29.9451 49.9829 27.9573L49.8851 27.7872M54.5327 61L37.6743 44.142C35.4933 44.6671 33.1923 44.2648 31.3189 43.0309L28.0985 40.9097M11.1884 35.693L21.6221 46.1264M51.2501 34.6953L40.1136 45.8317M46.1689 48.6115L44.5312 50.2491M55.6078 39.1728L53.9271 40.8533M3.14121 3.14115L8.88157 8.88139M14.6585 5.20917V1M5.20926 14.6583H1M58.8588 3.14115L53.1184 8.88139M47.3414 5.20917V1M56.7907 14.6583H61" stroke="black" stroke-width="2" stroke-miterlimit="10" stroke-linecap="round" stroke-linejoin="round"/>
</svg>
