<svg width="64" height="64" viewBox="0 0 64 64" fill="none" xmlns="http://www.w3.org/2000/svg">
<path d="M23.9498 16.517C22.7951 16.5172 21.6665 16.8598 20.7065 17.5014C19.7466 18.1431 18.9985 19.055 18.5568 20.1218C18.1151 21.1886 17.9997 22.3625 18.2252 23.4949C18.4506 24.6273 19.0068 25.6674 19.8234 26.4838C20.64 27.3001 21.6803 27.8559 22.8128 28.081C23.9453 28.3061 25.1191 28.1902 26.1858 27.7482C27.2525 27.3061 28.1641 26.5577 28.8055 25.5976C29.4468 24.6374 29.789 23.5086 29.7888 22.354C29.7867 20.8062 29.1708 19.3225 28.0761 18.2282C26.9815 17.134 25.4976 16.5186 23.9498 16.517ZM23.9498 26.193C23.1908 26.1928 22.4489 25.9675 21.8179 25.5457C21.1869 25.1239 20.6951 24.5245 20.4048 23.8232C20.1144 23.122 20.0385 22.3504 20.1866 21.606C20.3347 20.8616 20.7002 20.1778 21.2369 19.6411C21.7736 19.1044 22.4574 18.7389 23.2018 18.5908C23.9462 18.4426 24.7178 18.5186 25.4191 18.8089C26.1203 19.0993 26.7198 19.5911 27.1416 20.2221C27.5634 20.8531 27.7886 21.595 27.7888 22.354C27.788 23.3719 27.3833 24.3479 26.6635 25.0677C25.9437 25.7875 24.9677 26.1922 23.9498 26.193Z" fill="black"/>
<path d="M28.5998 31H19.2998C19.0346 31 18.7802 31.1054 18.5927 31.2929C18.4052 31.4804 18.2998 31.7348 18.2998 32C18.2998 32.2652 18.4052 32.5196 18.5927 32.7071C18.7802 32.8946 19.0346 33 19.2998 33H28.5998C28.865 33 29.1194 32.8946 29.3069 32.7071C29.4944 32.5196 29.5998 32.2652 29.5998 32C29.5998 31.7348 29.4944 31.4804 29.3069 31.2929C29.1194 31.1054 28.865 31 28.5998 31Z" fill="black"/>
<path d="M27.2079 35.1H20.6909C20.4257 35.1 20.1713 35.2053 19.9838 35.3929C19.7963 35.5804 19.6909 35.8348 19.6909 36.1C19.6909 36.3652 19.7963 36.6195 19.9838 36.8071C20.1713 36.9946 20.4257 37.1 20.6909 37.1H27.2079C27.4731 37.1 27.7275 36.9946 27.915 36.8071C28.1026 36.6195 28.2079 36.3652 28.2079 36.1C28.2079 35.8348 28.1026 35.5804 27.915 35.3929C27.7275 35.2053 27.4731 35.1 27.2079 35.1Z" fill="black"/>
<path d="M36.0999 2.31201C36.006 2.21292 35.8927 2.13412 35.7672 2.08046C35.6416 2.02681 35.5064 1.99942 35.3699 2.00001H12.5299C12.3937 1.9998 12.2589 2.02739 12.1338 2.08111C12.0087 2.13483 11.8959 2.21354 11.8022 2.31242C11.7086 2.41129 11.6361 2.52824 11.5893 2.65611C11.5425 2.78397 11.5223 2.92005 11.5299 3.05601L11.8399 8.55001L14.1909 50.4C14.2333 51.2375 14.5963 52.0267 15.2047 52.6038C15.8131 53.1809 16.6203 53.5019 17.4589 53.5H18.2999V55.291H17.8999C17.6347 55.291 17.3803 55.3964 17.1928 55.5839C17.0052 55.7714 16.8999 56.0258 16.8999 56.291V61C16.8999 61.2652 17.0052 61.5196 17.1928 61.7071C17.3803 61.8947 17.6347 62 17.8999 62H29.9999C30.2651 62 30.5195 61.8947 30.707 61.7071C30.8945 61.5196 30.9999 61.2652 30.9999 61V56.291C30.9999 56.0258 30.8945 55.7714 30.707 55.5839C30.5195 55.3964 30.2651 55.291 29.9999 55.291H29.5999V53.5H30.4409C31.279 53.5027 32.086 53.1827 32.6946 52.6065C33.3032 52.0303 33.6667 51.242 33.7099 50.405L34.9099 29.016C35.2805 29.3036 35.6689 29.5675 36.0729 29.806V39.391C36.073 39.5715 36.1219 39.7486 36.2145 39.9035C36.3071 40.0585 36.44 40.1855 36.5989 40.271C36.758 40.3566 36.9373 40.3976 37.1177 40.3895C37.2982 40.3814 37.4731 40.3245 37.6239 40.225L41.5859 37.605L45.5419 40.225C45.6926 40.3248 45.8675 40.3818 46.0481 40.3901C46.2286 40.3984 46.408 40.3576 46.5672 40.272C46.7265 40.1865 46.8595 40.0594 46.9522 39.9042C47.045 39.7491 47.0939 39.5717 47.0939 39.391V29.809C49.5666 28.3258 51.3489 25.921 52.0486 23.1237C52.7483 20.3264 52.3081 17.3658 50.8249 14.893C50.0905 13.6686 49.1221 12.6009 47.975 11.7508C46.828 10.9006 45.5247 10.2848 44.1396 9.9383C41.3423 9.23861 38.3816 9.67879 35.9089 11.162L36.0559 8.56801C36.0559 8.56101 36.0559 8.55601 36.0559 8.55001V8.54001L36.3659 3.05601C36.3744 2.92043 36.3552 2.78454 36.3095 2.65662C36.2638 2.52871 36.1924 2.41145 36.0999 2.31201ZM34.3119 4.00001L34.1119 7.55001H13.7869L13.5869 4.00001H34.3119ZM28.9999 60H18.8999V57.291H28.9999V60ZM27.5999 55.291H20.2999V53.5H27.5999V55.291ZM31.7099 50.3C31.6932 50.6252 31.5517 50.9313 31.315 51.1548C31.0783 51.3784 30.7645 51.502 30.4389 51.5H17.4589C17.1325 51.5012 16.8183 51.3765 16.5816 51.1518C16.3449 50.9272 16.2038 50.62 16.1879 50.294L13.8999 9.55001H33.9999L33.8139 12.827C31.9657 14.7051 30.8651 17.1923 30.7178 19.8231C30.5706 22.454 31.3868 25.0484 33.0139 27.121L31.7099 50.3ZM45.0919 37.529L42.1369 35.572C41.9736 35.4645 41.7824 35.4072 41.5869 35.4072C41.3914 35.4072 41.2002 35.4645 41.0369 35.572L38.0709 37.53V30.73C40.3448 31.5187 42.818 31.5187 45.0919 30.73V37.529ZM50.4699 20.435C50.4697 22.1925 49.9484 23.9104 48.9718 25.3715C47.9953 26.8327 46.6074 27.9715 44.9837 28.6439C43.36 29.3163 41.5734 29.4921 39.8497 29.1491C38.1261 28.8062 36.5428 27.9598 35.3002 26.717C34.0576 25.4742 33.2113 23.8909 32.8686 22.1672C32.5258 20.4435 32.7018 18.6569 33.3744 17.0333C34.047 15.4096 35.1859 14.0219 36.6472 13.0455C38.1085 12.0691 39.8264 11.548 41.5839 11.548C43.9396 11.5517 46.1978 12.4892 47.8635 14.1551C49.5292 15.821 50.4665 18.0793 50.4699 20.435Z" fill="black"/>
<path d="M35.2628 19.867L37.2788 21.833L36.7998 24.608C36.7489 24.8982 36.7804 25.1969 36.8909 25.47C37.0013 25.7432 37.1862 25.9798 37.4244 26.1531C37.6627 26.3264 37.9449 26.4293 38.2387 26.4501C38.5326 26.471 38.8265 26.4089 39.0868 26.271L41.5798 24.96L44.0728 26.271C44.3332 26.4079 44.6267 26.4692 44.9202 26.4479C45.2136 26.4267 45.4952 26.3238 45.7332 26.151C45.9713 25.9781 46.1562 25.742 46.2671 25.4695C46.378 25.1971 46.4104 24.899 46.3608 24.609L45.8848 21.833L47.9008 19.867C48.1117 19.6619 48.261 19.4018 48.3316 19.1161C48.4022 18.8305 48.3915 18.5308 48.3005 18.251C48.2095 17.9712 48.042 17.7224 47.8169 17.533C47.5917 17.3435 47.3181 17.2209 47.0268 17.179L44.2398 16.772L42.9998 14.248C42.8696 13.9842 42.6681 13.7621 42.4182 13.6069C42.1684 13.4516 41.88 13.3693 41.5858 13.3693C41.2916 13.3693 41.0033 13.4516 40.7534 13.6069C40.5035 13.7621 40.3021 13.9842 40.1718 14.248L38.9248 16.772L36.1398 17.179C35.8485 17.2207 35.5747 17.3432 35.3494 17.5326C35.1242 17.722 34.9565 17.9708 34.8654 18.2506C34.7743 18.5304 34.7635 18.8302 34.8341 19.1159C34.9047 19.4016 35.0539 19.6618 35.2648 19.867H35.2628ZM39.4318 18.72C39.6847 18.6833 39.9248 18.5855 40.1315 18.4351C40.3381 18.2848 40.505 18.0863 40.6178 17.857L41.5838 15.902L42.5488 17.858C42.662 18.0871 42.8292 18.2853 43.036 18.4355C43.2428 18.5856 43.4829 18.6833 43.7358 18.72L45.8948 19.034L44.3328 20.557C44.149 20.7359 44.0116 20.9569 43.9325 21.2008C43.8534 21.4448 43.8349 21.7043 43.8788 21.957L44.2478 24.107L42.3148 23.09C42.0888 22.9718 41.8374 22.91 41.5823 22.91C41.3272 22.91 41.0759 22.9718 40.8498 23.09L38.9198 24.1L39.2878 21.95C39.3321 21.6974 39.3139 21.4378 39.235 21.1938C39.156 20.9498 39.0187 20.7288 38.8348 20.55L37.2728 19.027L39.4318 18.72Z" fill="black"/>
</svg>
