<svg width="54" height="64" viewBox="0 0 54 64" fill="none" xmlns="http://www.w3.org/2000/svg">
<path d="M26.9997 7.50269C24.0609 7.50269 21.2451 8.16503 18.6305 9.47134C18.013 9.77995 17.7625 10.5307 18.071 11.1483C18.3794 11.7657 19.1302 12.0161 19.7478 11.7077C30.2449 6.24712 43.4475 14.4023 43.2486 26.252C43.2488 35.2115 35.9595 42.5009 26.9996 42.5009C15.1517 42.6986 6.99372 29.4976 12.4551 19.0007C12.7637 18.3833 12.5132 17.6324 11.8956 17.3239C11.2779 17.0152 10.5273 17.2658 10.2188 17.8834C3.91675 29.9968 13.3268 45.2293 26.9998 45.0007C51.8374 44.0591 51.8329 8.44164 26.9997 7.50269Z" fill="black"/>
<path d="M52.7593 30.3023C52.0383 27.4991 52.039 25.0019 52.7593 22.201C53.2184 20.1291 53.652 18.1721 52.6056 15.6456C51.5591 13.119 49.8687 12.0418 48.0789 10.9012C47.0152 10.2235 45.9152 9.52253 44.8222 8.42946C43.729 7.33627 43.028 6.23645 42.3504 5.17275C41.2098 3.38309 40.1326 1.69268 37.6062 0.646105C33.5009 -1.02793 30.982 1.08421 26.9999 1.04721C23.018 1.08421 20.4991 -1.02793 16.3937 0.646105C13.8672 1.69268 12.79 3.38309 11.6495 5.17275C10.9718 6.23645 10.2709 7.33627 9.17772 8.42946C8.08465 9.52265 6.9847 10.2235 5.92101 10.9012C4.13147 12.0417 2.44094 13.1188 1.39436 15.6453C0.347792 18.172 0.78152 20.129 1.24062 22.2009C1.96133 25.0036 1.96084 27.5019 1.2405 30.3022C0.781395 32.3742 0.347792 34.3311 1.39424 36.8578C2.44081 39.3843 4.13122 40.4616 5.92101 41.602C6.9847 42.2797 8.08465 42.9807 9.17772 44.0739C10.2709 45.167 10.9719 46.2669 11.6495 47.3306C12.6664 48.9265 13.6332 50.4436 15.6221 51.4954V62.7501C15.6221 63.1546 15.8178 63.534 16.1474 63.7685C16.477 64.003 16.9 64.0636 17.2817 63.931L26.9998 60.5596L36.7181 63.931C37.0979 64.0631 37.5222 64.0038 37.8524 63.7685C38.182 63.534 38.3776 63.1546 38.3776 62.7501V51.4954C41.7727 49.6634 42.2042 46.6265 44.8222 44.0739C45.9152 42.9807 47.0152 42.2799 48.0789 41.6021C49.8684 40.4616 51.5589 39.3844 52.6054 36.858C53.6521 34.3314 53.2184 32.3742 52.7593 30.3023ZM27.4094 58.0556C27.1441 57.9636 26.8554 57.9636 26.5901 58.0556L18.1219 60.9934V52.3747C19.7662 52.6887 21.3585 52.3729 22.9491 52.011C25.7523 51.2902 28.2499 51.2909 31.0504 52.011C32.6258 52.3601 34.1346 52.6943 35.8776 52.3747V60.9934L27.4094 58.0556ZM50.3186 30.8431C50.7379 32.7355 51.0408 34.1028 50.2958 35.9012C49.5509 37.6996 48.3699 38.4522 46.7353 39.4938C45.613 40.209 44.3411 41.0196 43.0545 42.3061C41.7678 43.5928 40.9572 44.8649 40.242 45.9872C39.2004 47.6217 38.4479 48.8027 36.6494 49.5476C34.851 50.2925 33.4839 49.9896 31.5913 49.5704C24.0267 47.5908 21.3179 51.1824 17.3503 49.5476C13.4066 47.9151 13.9986 43.4303 7.26444 39.4938C5.6299 38.4522 4.44883 37.6996 3.704 35.9011C2.95903 34.1025 3.26189 32.7354 3.68125 30.8429C4.47871 27.764 4.47771 24.7353 3.68125 21.66C3.26202 19.7676 2.95903 18.4005 3.704 16.6019C4.44883 14.8035 5.63002 14.0509 7.26444 13.0094C8.38676 12.2943 9.65869 11.4837 10.9454 10.197C12.2319 8.91043 13.0425 7.63837 13.7577 6.51606C14.7993 4.88139 15.5519 3.70045 17.3504 2.95549C21.3014 1.31445 23.9588 4.91076 31.5915 2.93274C35.6409 1.83229 38.1581 2.87737 40.2421 6.51606C40.9574 7.63837 41.7679 8.91031 43.0545 10.197C44.3412 11.4836 45.6132 12.2941 46.7354 13.0094C50.3768 15.095 51.4179 17.6132 50.3186 21.66C49.5209 24.739 49.5219 27.768 50.3186 30.8431Z" fill="black"/>
<path d="M15.7636 21.0204L17.6458 33.9315C17.7354 34.5457 18.262 35.0012 18.8827 35.0012H35.1176C35.7384 35.0012 36.2651 34.5457 36.3546 33.9315L38.2366 21.0204C38.3124 20.5001 38.0546 19.988 37.5914 19.7391C37.1287 19.4902 36.5591 19.5579 36.1668 19.9081L31.2673 24.2869L28.1321 17.5967C27.6975 16.6445 26.303 16.6449 25.8686 17.5967L22.7335 24.2869L17.8338 19.9081C17.4418 19.5577 16.8724 19.4901 16.4093 19.7391C15.9456 19.988 15.6877 20.5001 15.7636 21.0204ZM22.3195 27.2698C22.6139 27.5329 23.0155 27.6418 23.4027 27.5624C23.7898 27.4833 24.1166 27.226 24.2842 26.8682L27 21.0726L29.716 26.8682C29.8837 27.226 30.2105 27.4833 30.5975 27.5624C30.9847 27.6416 31.3862 27.5331 31.6808 27.2698L35.2664 24.0654L34.0367 32.5012H19.9635L18.7337 24.0654L22.3195 27.2698Z" fill="black"/>
<path d="M14.6256 15.128C14.9457 15.128 15.2658 15.0059 15.5099 14.7617C15.998 14.2736 15.998 13.4821 15.5099 12.994C15.0217 12.5059 14.2305 12.5059 13.7421 12.994L13.7414 12.9948C13.2533 13.4829 13.2537 14.2739 13.7418 14.762C13.9859 15.0062 14.3056 15.128 14.6256 15.128Z" fill="black"/>
</svg>
